<svg width="1307" height="1080" viewBox="0 0 1307 1080" fill="none" xmlns="http://www.w3.org/2000/svg">
<g clip-path="url(#clip0)">
<path d="M1118.68 0V40.74C1118.68 247.08 950.81 415 744.47 415H703.73V602.57H744.47C884.87 602.57 1016.58 551.5 1118.68 459.76V1079.7H1306.29V0H1118.68Z" fill="#FF5000"/>
<path d="M703.72 1080H2.06363e-05V986.74C-0.0255482 889.332 23.7094 793.387 69.1469 707.226C114.584 621.065 180.353 547.287 260.75 492.29L337.62 439.68C424.231 380.43 485.003 290.395 507.56 187.91H2.06363e-05V1.37988H703.72V99.1699C703.75 196.574 680.02 292.516 634.587 378.675C589.155 464.835 523.392 538.612 443 593.61L366.14 646.22C280.833 704.557 220.538 792.796 197.19 893.47H703.72V1080Z" fill="#FF5000"/>
</g>
<defs>
<clipPath id="clip0">
<rect width="1306.29" height="1080" fill="white"/>
</clipPath>
</defs>
</svg>
